<?xml version="1.0" encoding="UTF-8"?>
<svg version="1.1" xmlns="http://www.w3.org/2000/svg" width="379" height="379">
<path d="M0 0 C2.66523362 0.01610855 5.32895175 0.00002203 7.99414062 -0.01904297 C23.65835597 -0.03929702 38.8318819 1.88676277 53.91601562 6.20361328 C54.83656738 6.46223145 55.75711914 6.72084961 56.70556641 6.98730469 C85.56741779 15.30770222 111.9322198 30.74721282 133.66601562 51.39111328 C134.18776367 51.8803125 134.70951172 52.36951172 135.24707031 52.87353516 C165.78228273 81.66438172 190.58879714 125.66299857 191.97241211 168.3996582 C192.00548192 170.55682047 192.02652307 172.71419227 192.03710938 174.87158203 C192.04613785 176.04207596 192.05516632 177.21256989 192.06446838 178.41853333 C192.0789024 180.88845292 192.08784045 183.35841016 192.09155273 185.82836914 C192.1033408 189.52380832 192.15250743 193.21751502 192.203125 196.91259766 C192.45197423 233.23971751 181.49258403 269.99292521 159.66601562 299.39111328 C158.89773438 300.44169922 158.12945312 301.49228516 157.33789062 302.57470703 C151.59232089 310.30627274 145.31299467 317.42761142 138.66601562 324.39111328 C137.86550781 325.24447266 137.065 326.09783203 136.24023438 326.97705078 C116.62536406 347.33028773 90.67454226 362.3828549 64.04101562 371.39111328 C63.01919189 371.74044922 61.99736816 372.08978516 60.94458008 372.44970703 C42.73927438 378.28858208 24.95351599 380.07133649 5.90161133 379.9675293 C2.36704043 379.95366633 -1.16486906 379.98789096 -4.69921875 380.02587891 C-24.20142825 380.09261096 -42.97239519 377.38143739 -61.33398438 370.57861328 C-62.27491943 370.24023438 -63.21585449 369.90185547 -64.18530273 369.55322266 C-72.58442372 366.45394773 -80.49235072 362.68895227 -88.33398438 358.39111328 C-90.08001953 357.47072266 -90.08001953 357.47072266 -91.86132812 356.53173828 C-106.15977819 348.74720529 -118.6555258 338.67017176 -130.33398438 327.39111328 C-131.31674758 326.47151135 -132.29982388 325.55224392 -133.28320312 324.63330078 C-157.7586758 301.38340406 -174.41466122 269.66114194 -182.64648438 237.14111328 C-183.0102417 235.70541992 -183.0102417 235.70541992 -183.38134766 234.24072266 C-186.67658867 220.5753698 -187.68352895 207.43298077 -187.6496582 193.43432617 C-187.64650905 190.72484624 -187.67000988 188.01647407 -187.6953125 185.30712891 C-187.7506253 170.15271079 -186.08894556 155.33821123 -182.02148438 140.70361328 C-181.80983643 139.9258252 -181.59818848 139.14803711 -181.38012695 138.34667969 C-173.23663775 109.26236648 -158.53463241 83.05846726 -137.81445312 61.08251953 C-135.33144357 58.4539709 -135.33144357 58.4539709 -133.22851562 55.74267578 C-130.32748565 52.14180971 -126.85588011 49.36760836 -123.33398438 46.39111328 C-122.47933594 45.63701172 -121.6246875 44.88291016 -120.74414062 44.10595703 C-99.45036562 25.67471968 -73.81765138 12.92256647 -46.70898438 5.57861328 C-46.04334473 5.39588867 -45.37770508 5.21316406 -44.69189453 5.02490234 C-29.94151632 1.28634314 -15.18057385 -0.10859178 0 0 Z M-127.11865234 67.44726562 C-135.94635803 77.46199049 -143.15146041 88.57940125 -149.33398438 100.39111328 C-149.84058594 101.35525146 -149.84058594 101.35525146 -150.35742188 102.33886719 C-156.18157022 113.60125931 -160.23638137 125.10621573 -163.33398438 137.39111328 C-163.5133252 138.07592773 -163.69266602 138.76074219 -163.87744141 139.46630859 C-166.6316795 150.46685042 -166.64031418 161.67966223 -166.70898438 172.95361328 C-166.71702087 173.68806671 -166.72505737 174.42252014 -166.7333374 175.17922974 C-167.06703243 215.43329933 -150.01520507 253.59521256 -122.33398438 282.39111328 C-121.66979492 283.09397461 -121.66979492 283.09397461 -120.9921875 283.81103516 C-110.0538197 295.34958774 -98.13664136 304.45578784 -84.33398438 312.39111328 C-83.7595459 312.72353027 -83.18510742 313.05594727 -82.59326172 313.3984375 C-43.0704478 336.06194513 4.62975426 341.44657657 48.49487305 329.57324219 C77.47806507 321.23192966 101.61582893 306.95515886 123.66601562 286.39111328 C124.4678125 285.65505859 125.26960938 284.91900391 126.09570312 284.16064453 C153.5507608 257.97746653 170.8288764 218.87903665 172.00195312 181.01611328 C172.56981309 133.4917891 156.04975209 92.7859497 123.10351562 58.57861328 C118.55377047 54.20385832 113.63789765 50.27160657 108.66601562 46.39111328 C107.67214844 45.60736328 106.67828125 44.82361328 105.65429688 44.01611328 C35.37935874 -9.65605955 -68.4636898 2.9559884 -127.11865234 67.44726562 Z " fill="#006CA9" transform="translate(187.333984375,-0.39111328125)"/>
<path d="M0 0 C0.33 0 0.66 0 1 0 C1.28695263 7.32227383 0.53173152 14.03190525 -1 21.1875 C-1.33330322 22.74573486 -1.33330322 22.74573486 -1.67333984 24.33544922 C-6.99036893 48.02755793 -16.4610977 71.41756376 -31 91 C-31.76828125 92.05058594 -32.5365625 93.10117187 -33.328125 94.18359375 C-39.07369473 101.91515946 -45.35302095 109.03649814 -52 116 C-53.20076172 117.28003906 -53.20076172 117.28003906 -54.42578125 118.5859375 C-81.32097565 146.49355329 -124.37107315 169.78735108 -163.58105469 171.08544922 C-165.72088941 171.08920331 -167.86072549 171.0491051 -170 171 C-170 170.67 -170 170.34 -170 170 C-168.94425781 169.84144531 -167.88851562 169.68289063 -166.80078125 169.51953125 C-127.32054554 163.3976532 -90.38418899 148.7637374 -61 121 C-59.64991542 119.84935973 -58.29588411 118.7033304 -56.9375 117.5625 C-23.95659172 88.67942 -4.90927808 42.80890482 0 0 Z " fill="#001C2C" transform="translate(378,208)"/>
<path d="M0 0 C0.66 0.33 1.32 0.66 2 1 C-7.11890288 10.49484074 -16.42689273 19.15133826 -27 27 C-27.74894531 27.59296875 -28.49789063 28.1859375 -29.26953125 28.796875 C-31 30 -31 30 -33 30 C-31.75824057 26.27472172 -30.52279715 25.74175281 -27.3125 23.5625 C-17.48381645 16.61706782 -8.31109605 8.70686252 0 0 Z " fill="#00141F" transform="translate(329,318)"/>
<path d="M0 0 C0.66 0.33 1.32 0.66 2 1 C-2.95 5.95 -7.9 10.9 -13 16 C-13.66 15.67 -14.32 15.34 -15 15 C-11.60955398 10.65599103 -7.97012263 7.08171023 -3.76953125 3.515625 C-1.91655093 1.96792368 -1.91655093 1.96792368 0 0 Z " fill="#004975" transform="translate(66,44)"/>
</svg>
